<?xml version="1.0" encoding="UTF-8" standalone="no"?>
 <!DOCTYPE svg PUBLIC "-//W3C//DTD SVG 1.1//EN" "http://www.w3.org/Graphics/SVG/1.1/DTD/svg11.dtd">
 <svg width="100%" height="100%" viewBox="0 0 218 178" version="1.1" xmlns="http://www.w3.org/2000/svg" xmlns:xlink="http://www.w3.org/1999/xlink" xml:space="preserve" style="fill-rule:evenodd;clip-rule:evenodd;">
     <g id="nazbay_logo">
         <g id="font" transform="matrix(1,0,0,1,31,0)">
             <path id="AZBAY" d="M64.411,74.477C61.1,83.64 58.323,88.541 52.555,88.541C47.534,88.541 43.048,83.746 42.941,80.55L42.941,80.337C41.98,82.255 41.125,84.279 40.164,86.197L38.455,89.5C37.386,91.205 36.318,92.696 34.823,93.655C34.075,94.188 33.22,94.508 32.152,94.614L31.832,94.614C21.15,94.614 20.723,69.149 33.968,69.149C35.998,69.149 37.28,69.895 39.736,71.493C40.484,71.92 41.018,72.133 41.445,72.133C41.98,72.133 42.3,71.813 42.514,71.174C42.727,70.641 43.582,70.108 44.009,70.108C44.543,70.108 45.611,70.641 45.825,71.174C45.825,71.28 45.932,71.387 45.932,71.387C45.932,71.387 45.611,73.305 45.611,75.329L45.611,76.075C45.825,81.615 49.243,86.197 53.195,86.197C57.361,86.197 59.711,81.935 62.275,74.264C62.916,72.346 64.839,73.305 64.411,74.477ZM40.484,77.034C40.591,76.714 40.591,76.501 40.591,76.288C40.591,73.944 39.095,72.239 37.173,71.707C36.639,71.493 36.105,71.387 35.464,71.387C34.395,71.387 33.541,71.6 32.686,72.026C26.918,74.903 26.705,86.517 29.375,91.311C29.802,92.164 30.657,92.696 31.405,92.696C33.114,92.696 35.357,89.287 37.28,85.558C38.882,82.255 40.164,78.739 40.484,77.034ZM131.92,6.073C132.348,7.778 132.455,9.696 132.241,11.507C131.707,15.769 130.852,19.924 129.143,23.867C126.259,30.473 122.734,36.759 118.568,42.832C111.411,53.274 103.08,62.757 93.466,71.067C91.864,72.452 90.795,73.944 90.689,76.075C90.582,78.632 90.155,81.189 89.941,83.746C89.941,83.853 90.155,84.279 90.261,84.279C90.475,84.386 90.902,84.173 91.009,84.066C92.077,82.574 93.145,80.976 94.32,79.591C95.068,78.632 96.03,77.673 97.098,76.927C100.623,74.477 104.575,75.116 106.818,79.165C107.886,81.083 108.314,83.853 109.061,88.008C115.577,85.451 121.88,76.714 122.734,74.264C123.161,72.985 125.298,73.305 124.87,74.477C123.802,77.247 117.714,86.73 109.489,90.565C108.848,95.68 107.78,97.917 106.605,100.581C105.643,102.712 104.361,104.63 102.439,105.908C99.982,107.613 97.098,106.548 96.67,103.564C96.457,102.392 96.67,101.007 96.991,99.835C98.593,94.188 103.293,91.205 105.323,89.82C105.643,88.967 104.789,84.386 104.148,81.722C104.041,81.509 104.041,81.296 103.934,81.189C103.827,80.657 103.507,80.23 103.186,79.804C102.225,78.526 101.691,77.993 100.089,78.099C98.486,78.206 97.098,79.591 96.03,80.657C93.68,83.001 92.077,85.877 91.009,88.967C90.582,90.033 90.261,91.205 89.941,92.27C89.62,93.123 89.3,93.975 88.339,93.975C87.164,93.975 87.057,92.91 87.057,92.057C86.95,89.393 86.843,86.73 86.843,83.96C86.843,76.608 88.445,69.043 90.048,61.798C91.009,57.323 92.077,52.741 93.466,48.266C95.495,41.767 97.845,35.374 100.195,28.981C102.439,22.908 105.643,17.474 109.168,12.04C111.091,9.057 113.441,6.393 116.218,4.049C118.141,2.451 120.384,1.172 122.948,0.533C127.434,-0.533 130.745,1.492 131.92,6.073ZM126.686,23.76C128.182,19.285 129.464,14.81 129.998,9.909C129.891,8.843 129.891,7.565 129.57,6.286C128.609,2.344 125.832,1.065 122.093,3.09C120.491,3.942 118.995,5.008 117.714,6.286C113.441,10.015 110.45,14.597 107.886,19.498C104.361,26.317 101.477,33.456 99.234,40.808C96.457,49.864 93.68,58.921 91.864,68.297C91.864,68.51 91.97,68.83 92.077,69.043C92.291,69.149 92.718,69.149 92.825,69.043C93.893,68.19 94.855,67.445 95.816,66.592C98.486,63.929 101.264,61.265 103.934,58.388C110.343,51.569 115.577,43.791 120.598,35.907C123.055,32.071 125.298,28.022 126.686,23.76ZM105.536,92.377C102.118,93.762 99.768,96.852 98.914,99.729C98.486,100.901 98.593,102.179 98.7,103.458C98.7,103.884 99.234,104.523 99.555,104.736C102.545,105.482 105.536,96.639 105.536,92.377ZM186.611,74.477C185.223,78.313 183.514,81.615 177.639,86.943C176.57,88.008 176.143,89.287 176.25,90.779C176.357,92.057 176.357,93.336 176.357,94.614C176.464,94.827 176.464,95.147 176.464,95.36C176.57,97.065 176.57,98.663 176.57,100.368C176.677,105.695 176.25,111.023 175.609,116.243C174.755,123.915 173.686,131.48 171.977,138.938C170.802,143.52 169.52,147.995 167.491,152.363C163.325,161.42 157.557,169.091 148.798,174.312C146.555,175.697 144.311,176.869 141.641,177.189C136.62,177.935 132.668,175.91 130.639,171.222C128.395,166.001 128.395,160.674 129.357,155.24C130.532,148.527 133.309,142.241 136.514,136.274C141.427,127.324 147.195,119.12 153.498,111.236C158.839,104.523 164.5,98.13 170.161,91.738C171.977,89.713 172.725,87.902 172.084,85.238C171.657,83.427 171.55,81.615 171.23,79.804C171.123,79.591 170.802,79.271 170.695,79.271C170.482,79.165 170.161,79.485 170.055,79.698C169.093,81.296 168.239,83.001 167.17,84.492C165.675,86.41 163.218,87.795 161.082,85.664C158.839,83.427 158.411,74.796 159.586,73.198C159.907,72.772 160.548,72.452 161.082,72.559C161.509,72.559 162.15,73.092 162.257,73.518C162.47,74.583 162.364,75.755 162.364,76.821C162.47,78.526 162.364,80.23 162.47,81.935C162.577,82.787 162.898,83.746 163.539,84.173C164.393,84.599 165.034,83.64 165.568,83.001C167.17,80.976 168.559,78.845 169.093,76.288C169.307,75.649 169.307,74.903 169.734,74.264C170.055,73.731 170.589,73.198 171.123,72.985C171.977,72.665 172.939,73.092 173.366,73.838C173.793,74.69 174.22,75.649 174.434,76.608C174.861,78.419 175.075,80.23 175.395,82.042C175.502,82.894 175.289,84.066 176.25,84.173C177.532,84.279 182.445,80.337 184.368,74.583C184.902,73.092 187.039,73.305 186.611,74.477ZM173.152,102.818C173.152,100.688 173.152,98.557 173.045,96.426C173.045,95.786 172.939,95.04 172.618,94.401C172.511,94.188 171.87,93.975 171.657,94.082C171.016,94.614 170.375,95.147 169.734,95.786C164.393,102.179 158.839,108.465 153.605,114.965C146.768,123.702 140.466,132.758 135.873,142.987C134.484,145.864 133.202,148.954 132.348,152.043C130.745,157.264 130.318,162.592 131.707,168.026C132.241,169.943 132.989,171.755 134.484,173.246C136.407,175.164 138.65,176.123 141.427,175.164C143.03,174.525 144.632,173.992 146.127,173.14C149.866,171.115 153.07,168.345 155.955,165.149C161.509,158.969 165.034,151.83 167.277,143.946C170.695,132.226 172.298,120.186 172.939,108.039C172.939,106.335 173.045,104.523 173.152,102.818Z" style="fill:white;"/>
             <path id="Combined.-Shape" d="M89.727,74.477C85.241,84.705 79.58,82.255 77.657,84.705C77.657,84.812 77.657,84.918 77.55,85.025C77.443,85.558 77.336,85.984 77.336,86.41C77.123,90.352 75.841,93.549 74.132,96.106C73.17,97.598 71.995,98.77 70.82,99.835C68.791,101.433 66.548,102.286 64.732,102.286C63.984,102.286 63.236,101.966 62.702,101.327C62.275,100.794 61.955,100.155 61.955,99.302C61.955,98.983 61.955,98.663 62.061,98.343C62.809,95.04 66.761,90.779 69.966,87.689C70.927,86.836 71.782,85.984 72.53,85.345C72.957,84.918 73.277,84.492 73.491,83.96C73.491,83.64 73.598,83.427 73.598,83.107C73.598,82.681 73.491,82.255 73.384,81.935C73.277,81.402 73.064,81.083 72.85,80.763C72.53,80.443 72.209,80.337 71.675,80.23C70.286,80.124 68.684,80.124 68.684,78.845C68.684,78.632 68.684,78.419 68.791,78.313C69.005,77.78 70.18,76.075 71.248,74.157C72.209,72.452 72.957,70.535 72.743,69.576C71.782,65.633 66.548,68.19 64.411,74.583C63.984,75.862 61.741,75.862 62.275,74.264C65.8,63.609 76.055,62.011 76.055,69.363C76.055,71.493 74.559,74.37 73.17,76.608C72.957,76.927 72.85,77.247 72.85,77.567C72.85,77.886 72.957,78.099 73.491,78.313C74.132,78.632 74.666,78.845 75.2,79.271C75.52,79.485 75.841,79.804 76.161,80.124L77.23,81.083C77.336,81.296 77.443,81.402 77.443,81.615L77.55,82.255C79.58,80.763 85.027,80.763 87.591,74.264C88.018,73.198 90.048,73.624 89.727,74.477ZM70.607,95.147C72.209,92.27 72.85,89.5 72.85,89.393C72.85,89.18 72.743,88.967 72.53,88.861C72.53,88.754 72.423,88.754 72.316,88.754C71.461,88.754 66.868,93.016 64.732,96.745C63.984,97.917 63.877,99.089 64.091,99.729C64.411,100.474 65.266,100.581 66.761,99.515C68.364,98.343 69.645,96.745 70.607,95.147Z" style="fill:white;"/>
             <path id="Combined.-Shape1" d="M161.295,74.477C157.984,83.64 155.207,88.541 149.439,88.541C144.418,88.541 139.932,83.746 139.825,80.55L139.825,80.337C138.864,82.255 138.009,84.279 137.048,86.197L135.339,89.5C134.27,91.205 133.202,92.696 131.707,93.655C130.959,94.188 130.105,94.508 129.036,94.614L128.716,94.614C118.034,94.614 117.607,69.149 130.852,69.149C132.882,69.149 134.164,69.895 136.62,71.493C137.368,71.92 137.902,72.133 138.33,72.133C138.864,72.133 139.184,71.813 139.398,71.174C139.611,70.641 140.466,70.108 140.893,70.108C141.427,70.108 142.495,70.641 142.709,71.174C142.709,71.28 142.816,71.387 142.816,71.387C142.816,71.387 142.495,73.305 142.495,75.329L142.495,76.075C142.709,81.615 146.127,86.197 150.08,86.197C154.245,86.197 156.595,81.935 159.159,74.264C159.8,72.346 161.723,73.305 161.295,74.477ZM137.368,77.034C137.475,76.714 137.475,76.501 137.475,76.288C137.475,73.944 135.98,72.239 134.057,71.707C133.523,71.493 132.989,71.387 132.348,71.387C131.28,71.387 130.425,71.6 129.57,72.026C123.802,74.903 123.589,86.517 126.259,91.311C126.686,92.164 127.541,92.696 128.289,92.696C129.998,92.696 132.241,89.287 134.164,85.558C135.766,82.255 137.048,78.739 137.368,77.034Z" style="fill:white;"/>
             <path id="n" d="M3.418,98.62C3.675,98.194 3.589,97.427 3.504,96.916C2.307,90.693 2.649,84.386 2.564,78.078C2.564,77.14 2.564,76.288 2.649,75.35C2.735,74.924 3.076,74.242 3.418,74.157C3.76,74.072 4.358,74.498 4.529,74.839C7.178,80.38 9.571,86.005 12.476,91.29C13.844,93.932 13.117,97.001 16.535,95.722C19.612,94.614 19.783,90.523 20.039,87.284C20.381,81.658 20.381,75.947 20.21,70.236C20.039,66.06 19.526,61.883 19.099,57.706C18.928,56.513 18.415,55.405 17.134,55.405C15.595,55.405 17.176,57.706 17.176,59.24C17.091,61.627 17.433,64.014 17.518,66.4C17.689,71.77 17.945,77.14 18.031,82.596C18.031,84.215 17.817,89.756 15.766,90.182C14.399,90.523 13.886,88.562 13.288,87.284C10.81,81.743 8.161,76.203 6.623,70.151C5.854,66.997 5.085,63.545 3.504,60.349C2.52,58.36 2.136,56.641 0.94,58.175C0.171,59.113 0,60.221 0,61.414C0,72.751 0.085,75.99 0.171,92.952C0.171,95.339 0.598,97.725 1.795,99.771C2.307,100.709 2.991,99.302 3.418,98.62Z" style="fill:white;"/>
         </g>
         <g id="Group.-2" transform="matrix(0.559193,0.829038,-0.829038,0.559193,141.765,10)">
             <path d="M125.723,6.893L129.426,2.088C131.901,0.232 133.756,-0.387 134.993,0.232C136.23,0.85 136.23,2.706 134.993,5.799C112.792,34.476 95.938,55.816 84.429,69.816C72.92,83.817 44.777,117.217 0,170.017L123.71,9.504L124.896,7.969L125.723,6.893ZM130.159,4.282L121.914,15.224C121.582,15.665 121.67,16.292 122.111,16.624L122.326,16.786C122.767,17.118 123.394,17.03 123.726,16.589L131.971,5.647C132.304,5.206 132.215,4.579 131.774,4.247L131.56,4.085C131.119,3.753 130.492,3.841 130.159,4.282Z" style="fill:white;stroke:white;stroke-width:1px;"/>
         </g>
         <g id="Path.-4" transform="matrix(0.559193,0.829038,-0.829038,0.559193,187.549,-107.495)">
             <path d="M203.643,110.279C203.774,111.753 203.475,112.959 202.748,113.897C201.394,115.643 197.262,120.89 195.949,122.579C183.533,138.56 182.791,139.065 193.722,124.093L198.196,117.46L203.643,110.279Z" style="fill:white;"/>
         </g>
     </g>
 </svg>
